<svg width="19" height="20" viewBox="0 0 19 20" fill="none" xmlns="http://www.w3.org/2000/svg">
<path d="M16.2312 3.23059C15.3557 2.34657 14.313 1.64563 13.164 1.16863C12.0149 0.691618 10.7823 0.448078 9.53819 0.4522C4.32512 0.4522 0.0763821 4.70094 0.0763821 9.91401C0.0763821 11.5849 0.515578 13.208 1.33668 14.6401L0 19.5477L5.01256 18.2301C6.39698 18.9844 7.95327 19.3854 9.53819 19.3854C14.7513 19.3854 19 15.1366 19 9.92356C19 7.39341 18.0166 5.01602 16.2312 3.23059ZM9.53819 17.7813C8.12512 17.7813 6.7407 17.3994 5.52814 16.6834L5.24171 16.5115L2.26281 17.2944L3.05528 14.3919L2.86432 14.0959C2.07907 12.8424 1.66219 11.3932 1.66131 9.91401C1.66131 5.57934 5.19397 2.04667 9.52864 2.04667C11.6291 2.04667 13.6055 2.86778 15.0854 4.35722C15.8183 5.08654 16.3991 5.95412 16.7941 6.90965C17.1891 7.86517 17.3904 8.88962 17.3864 9.92356C17.4055 14.2582 13.8729 17.7813 9.53819 17.7813ZM13.8538 11.8999C13.6151 11.7854 12.4502 11.2125 12.2402 11.1266C12.0206 11.0502 11.8678 11.012 11.7055 11.2411C11.5432 11.4798 11.0945 12.0145 10.9608 12.1673C10.8271 12.3296 10.6839 12.3487 10.4452 12.2246C10.2065 12.11 9.44271 11.8522 8.54523 11.0502C7.83869 10.42 7.37085 9.64667 7.22764 9.40798C7.09397 9.16928 7.20854 9.04516 7.33266 8.92104C7.43769 8.81602 7.57136 8.64416 7.68593 8.51049C7.8005 8.37682 7.84824 8.2718 7.92462 8.11903C8.001 7.95672 7.96281 7.82305 7.90553 7.70848C7.84824 7.59391 7.37085 6.42908 7.1799 5.9517C6.98894 5.49341 6.78844 5.55069 6.64523 5.54114H6.18693C6.02462 5.54114 5.77638 5.59843 5.55678 5.83712C5.34673 6.07582 4.73568 6.64868 4.73568 7.81351C4.73568 8.97833 5.58543 10.105 5.7 10.2577C5.81457 10.42 7.37085 12.807 9.73869 13.8286C10.302 14.0768 10.7412 14.22 11.0849 14.3251C11.6482 14.5065 12.1638 14.4778 12.5744 14.4205C13.0327 14.3537 13.9779 13.8477 14.1688 13.2939C14.3693 12.7401 14.3693 12.2723 14.3025 12.1673C14.2357 12.0622 14.0925 12.0145 13.8538 11.8999Z" fill="#F5F5F5"/>
</svg>
