<svg width="19" height="19" viewBox="0 0 19 19" fill="none" xmlns="http://www.w3.org/2000/svg">
<path opacity="0.91" d="M3.98741 2.44685C3.98714 2.97561 3.77684 3.48261 3.40276 3.85632C3.02868 4.23002 2.52147 4.43982 1.99271 4.43956C1.46394 4.43929 0.956943 4.22899 0.583238 3.85491C0.209533 3.48083 -0.000264132 2.97362 2.49573e-07 2.44486C0.000264631 1.91609 0.210568 1.40909 0.584647 1.03539C0.958726 0.661681 1.46594 0.451884 1.9947 0.452149C2.52346 0.452413 3.03047 0.662717 3.40417 1.0368C3.77788 1.41087 3.98767 1.91809 3.98741 2.44685ZM4.04722 5.91589H0.0598113V18.3965H4.04722V5.91589ZM10.3473 5.91589H6.37985V18.3965H10.3075V11.8472C10.3075 8.19869 15.0624 7.85976 15.0624 11.8472V18.3965H19V10.4914C19 4.34087 11.9622 4.57014 10.3075 7.59061L10.3473 5.91589Z" fill="#F5F5F5"/>
</svg>
