<svg width="28" height="40" viewBox="0 0 28 40" fill="none" xmlns="http://www.w3.org/2000/svg">
<path d="M6.99755 0H13.4791V12.9633H6.99763C-1.55002 12.6291 -1.63635 0.350937 6.99755 0ZM6.99755 26.481H13.4791V13.5177H6.99763C-1.63627 13.8687 -1.55002 26.1469 6.99755 26.481ZM20.5153 0H14.0336V12.9633H20.5153C29.1779 12.4997 29.07 0.264609 20.5153 0ZM13.4791 33.5172V27.0355H6.99763C1.70841 27.0355 -1.63627 33.2367 2.04224 37.6908C5.54943 42.1055 13.4792 39.9045 13.4792 33.5172M27.0101 19.9994C27.0101 15.0181 21.5806 11.888 17.2605 14.3787C12.9404 16.8693 12.9404 23.1295 17.2605 25.6201C21.5807 28.1108 27.0101 24.9806 27.0101 19.9994Z" fill="#8D1D1D"/>
</svg>
