<svg width="51" height="40" viewBox="0 0 51 40" fill="none" xmlns="http://www.w3.org/2000/svg">
<path d="M11.0778 0C8.21354 0 6.09481 2.50783 6.1894 5.22758C6.28039 7.83997 6.16226 11.2242 5.31022 13.9834C4.45618 16.7515 3.01151 18.5006 0.651733 18.7257V21.2747C3.01151 21.4994 4.45618 23.2489 5.31022 26.017C6.16226 28.7762 6.27999 32.1604 6.1894 34.7728C6.09442 37.4926 8.21354 40 11.0778 40H40.4263C43.2905 40 45.4092 37.4922 45.3146 34.7728C45.2236 32.1604 45.3417 28.7762 46.1934 26.017C47.0474 23.2493 48.4885 21.4998 50.8483 21.2747V18.7257C48.4885 18.501 47.0478 16.7515 46.1934 13.9834C45.3417 11.2242 45.2236 7.83997 45.3146 5.22758C45.4092 2.50783 43.2905 0 40.4259 0H11.0778ZM34.27 24.6178C34.27 28.3628 31.4756 30.6331 26.8387 30.6331H18.2896C18.2638 30.6332 18.2383 30.6282 18.2145 30.6183C18.1907 30.6085 18.1691 30.5941 18.1509 30.5759C18.1327 30.5577 18.1183 30.536 18.1084 30.5122C18.0986 30.4884 18.0936 30.4629 18.0936 30.4372V9.55482C18.0935 9.52904 18.0985 9.5035 18.1083 9.47965C18.1181 9.45581 18.1325 9.43414 18.1507 9.41589C18.169 9.39764 18.1906 9.38317 18.2144 9.37332C18.2382 9.36347 18.2638 9.35842 18.2896 9.35848H26.7936C30.6603 9.35848 33.1977 11.4521 33.1977 14.6663C33.1977 16.9223 31.4908 18.9416 29.3158 19.2956V19.4137C32.2762 19.7382 34.27 21.7875 34.27 24.6178ZM25.9779 12.0567H21.477V18.4109H25.2683C28.1984 18.4109 29.8143 17.2316 29.8143 15.1232C29.8143 13.1478 28.4251 12.0567 25.9779 12.0567ZM21.477 20.9323V27.9354H26.1443C29.1953 27.9354 30.8116 26.7118 30.8116 24.4115C30.8116 22.1115 29.1502 20.9323 25.948 20.9323H21.477Z" fill="#8D1D1D"/>
</svg>
