<svg width="42" height="40" viewBox="0 0 42 40" fill="none" xmlns="http://www.w3.org/2000/svg">
<path d="M8.00193 0C3.98494 0 0.737183 3.24808 0.737183 7.26538V32.7346C0.737183 36.7519 3.98494 40 8.00193 40H34.4981C38.5151 40 41.7628 36.7519 41.7628 32.7346V7.26538C41.7628 3.24808 38.5151 0 34.4981 0H8.00193ZM15.4381 10.1712C16.8397 10.1712 18.0022 10.3417 18.9593 10.7006C19.8175 10.9922 20.6 11.4712 21.25 12.1029C21.8007 12.6555 22.2263 13.32 22.4981 14.0513C22.7545 14.7692 22.8907 15.5042 22.8907 16.2734C22.8907 17.7435 22.5488 18.9572 21.8651 19.9144C21.1817 20.8715 20.2247 21.5897 19.1135 22C17.951 22.4276 16.6689 22.5811 15.2673 22.5811C14.8571 22.5811 14.583 22.5811 14.4122 22.5641C14.2413 22.5471 14.0019 22.5471 13.6772 22.5471V28.0343C13.6942 28.1538 13.609 28.2567 13.4894 28.2737H10.1731C10.0365 28.2737 9.96859 28.2048 9.96859 28.051V10.4615C9.96859 10.342 10.0199 10.2731 10.1394 10.2731C10.4301 10.2731 10.7035 10.2731 11.0965 10.2564C11.5067 10.2391 11.934 10.2397 12.3955 10.2224C12.8571 10.2054 13.3529 10.2051 13.8827 10.1881C14.4128 10.1708 14.9253 10.1712 15.4381 10.1712ZM15.8196 13.5378C15.7323 13.5362 15.645 13.5364 15.5577 13.5385C15.1135 13.5385 14.7202 13.5388 14.3952 13.5561C14.0535 13.5388 13.8144 13.5558 13.6949 13.5728V19.3163C13.934 19.3337 14.1558 19.3503 14.3609 19.3503H15.2673C15.934 19.3503 16.6006 19.2478 17.233 19.0426C17.7801 18.8888 18.2587 18.5638 18.6346 18.1365C18.9936 17.709 19.1647 17.1282 19.1647 16.376C19.1805 15.8419 19.0442 15.3144 18.7718 14.8548C18.4811 14.4106 18.0705 14.0683 17.5747 13.8804C17.0212 13.6561 16.4285 13.5497 15.8196 13.5378ZM30.1561 14.4106C30.8571 14.4106 31.575 14.4612 32.2756 14.5638C32.7885 14.6321 33.284 14.7696 33.7455 14.9577C33.8141 14.9747 33.8824 15.0426 33.9163 15.1109C33.9337 15.1792 33.951 15.2478 33.951 15.316V18.1026C33.9511 18.1357 33.9435 18.1685 33.9287 18.1981C33.9139 18.2278 33.8923 18.2536 33.8657 18.2734C33.7119 18.3077 33.6263 18.3077 33.558 18.2734C33.0452 18 32.4978 17.8122 31.9163 17.6926C31.284 17.5558 30.6516 17.4699 30.0022 17.4699C29.6603 17.4526 29.301 17.5045 28.9763 17.5897C28.7538 17.641 28.566 17.7609 28.4465 17.9317C28.3612 18.0686 28.3099 18.2394 28.3099 18.3933C28.3099 18.5471 28.3785 18.701 28.4811 18.8375C28.6349 19.0256 28.8397 19.1798 29.0619 19.2997C29.4583 19.5046 29.8632 19.6924 30.2756 19.8628C31.1987 20.1705 32.0875 20.5984 32.908 21.1112C33.4721 21.4702 33.9337 21.949 34.2583 22.5301C34.5333 23.0753 34.6686 23.6803 34.6519 24.2907C34.6658 25.0987 34.433 25.8918 33.9846 26.5641C33.508 27.2464 32.8428 27.775 32.0705 28.0853C31.2327 28.4442 30.2071 28.6324 28.9763 28.6324C28.1897 28.6324 27.4212 28.5641 26.6519 28.4103C26.049 28.3061 25.4627 28.1221 24.9083 27.8631C24.7888 27.7949 24.7029 27.675 24.7199 27.5381V24.5641C24.7199 24.5128 24.7369 24.4442 24.7881 24.4103C24.8394 24.376 24.8907 24.3936 24.942 24.4276C25.6004 24.816 26.3158 25.0987 27.0619 25.2654C27.7115 25.4362 28.3955 25.5215 29.0795 25.5215C29.7288 25.5215 30.1904 25.4359 30.4981 25.2821C30.7715 25.1625 30.9593 24.8718 30.9593 24.5641C30.9593 24.325 30.8228 24.1022 30.549 23.8798C30.2756 23.6577 29.7115 23.4016 28.874 23.0769C28.0147 22.7743 27.1985 22.3605 26.4465 21.8462C25.9108 21.4645 25.467 20.9681 25.1474 20.3933C24.8746 19.8534 24.7396 19.2544 24.7545 18.6497C24.7545 17.9147 24.9593 17.2138 25.3353 16.5814C25.7625 15.8978 26.3955 15.3506 27.1308 15.009C27.934 14.5987 28.942 14.4106 30.1561 14.4106Z" fill="#8D1D1D"/>
</svg>
