<svg width="41" height="40" viewBox="0 0 41 40" fill="none" xmlns="http://www.w3.org/2000/svg">
<path d="M20.25 0C22.8764 0 25.4772 0.517315 27.9037 1.52241C30.3302 2.5275 32.535 4.00069 34.3921 5.85786C36.2493 7.71504 37.7225 9.91982 38.7276 12.3463C39.7327 14.7728 40.25 17.3736 40.25 20C40.25 25.3043 38.1429 30.3914 34.3921 34.1421C30.6414 37.8929 25.5543 40 20.25 40C17.6236 40 15.0228 39.4827 12.5963 38.4776C10.1698 37.4725 7.96504 35.9993 6.10786 34.1421C2.35714 30.3914 0.25 25.3043 0.25 20C0.25 14.6957 2.35714 9.60859 6.10786 5.85786C9.85859 2.10714 14.9457 0 20.25 0ZM16.25 26.66C16.57 27.74 16.53 28.74 16.25 29.66C16.25 29.76 16.17 29.86 16.13 30C16.09 30 16.05 30.14 15.99 30.24C15.77 30.72 15.45 31.18 15.07 31.58C13.91 32.86 12.25 33.34 11.59 32.94C10.83 32.5 11.25 30.7 12.57 29.28C14.01 27.76 16.09 26.76 16.09 26.76L16.25 26.66ZM32.79 8.56C31.89 5 25.99 3.84 20.43 5.82C17.11 7 13.51 8.84 10.93 11.26C7.87 14.14 7.37 16.64 7.57 17.68C8.25 21.36 13.33 23.78 15.41 25.56V25.58C14.81 25.88 10.33 28.14 9.25 30.46C8.17 32.9 9.45 34.66 10.25 34.9C12.93 35.62 15.63 34.32 17.07 32.14C18.47 30.06 18.37 27.36 17.75 26C18.59 25.8 19.57 25.7 20.81 25.84C24.33 26.26 25.01 28.44 24.87 29.36C24.75 30.28 24.01 30.78 23.77 30.94C23.53 31.08 23.45 31.14 23.47 31.26C23.49 31.42 23.61 31.42 23.81 31.38C24.11 31.32 25.67 30.64 25.73 28.94C25.81 26.78 23.75 24.38 20.11 24.44C18.61 24.48 17.67 24.62 16.99 24.88L16.83 24.7C14.57 22.3 10.41 20.6 10.59 17.36C10.65 16.18 11.05 13.1 18.59 9.34C24.75 6.26 29.69 7.1 30.55 9C31.77 11.66 27.91 16.64 21.51 17.36C19.07 17.64 17.77 16.68 17.45 16.34C17.11 16 17.07 15.94 16.95 16C16.73 16.14 16.87 16.46 16.95 16.66C17.13 17.16 17.93 18 19.25 18.48C20.43 18.86 23.31 19.08 26.77 17.74C30.65 16.24 33.69 12.06 32.79 8.56Z" fill="#8D1D1D"/>
</svg>
