<svg width="31" height="22" viewBox="0 0 31 22" fill="none" xmlns="http://www.w3.org/2000/svg">
<path d="M1.72223 21.5C1.23426 21.5 0.825524 21.332 0.496006 20.996C0.166488 20.66 0.00115409 20.2446 5.93869e-06 19.75C-0.00114221 19.2553 0.164191 18.84 0.496006 18.504C0.827821 18.168 1.23656 18 1.72223 18H29.2778C29.7657 18 30.175 18.168 30.5057 18.504C30.8364 18.84 31.0011 19.2553 31 19.75C30.9988 20.2446 30.8335 20.6606 30.504 20.9977C30.1745 21.3349 29.7657 21.5023 29.2778 21.5H1.72223ZM1.72223 12.75C1.23426 12.75 0.825524 12.582 0.496006 12.246C0.166488 11.91 0.00115409 11.4947 5.93869e-06 11C-0.00114221 10.5053 0.164191 10.09 0.496006 9.75399C0.827821 9.41799 1.23656 9.24999 1.72223 9.24999H29.2778C29.7657 9.24999 30.175 9.41799 30.5057 9.75399C30.8364 10.09 31.0011 10.5053 31 11C30.9988 11.4947 30.8335 11.9106 30.504 12.2477C30.1745 12.5849 29.7657 12.7523 29.2778 12.75H1.72223ZM1.72223 4C1.23426 4 0.825524 3.832 0.496006 3.496C0.166488 3.16 0.00115409 2.74466 5.93869e-06 2.25C-0.00114221 1.75533 0.164191 1.34 0.496006 1.004C0.827821 0.668 1.23656 0.5 1.72223 0.5H29.2778C29.7657 0.5 30.175 0.668 30.5057 1.004C30.8364 1.34 31.0011 1.75533 31 2.25C30.9988 2.74466 30.8335 3.16058 30.504 3.49775C30.1745 3.83491 29.7657 4.00233 29.2778 4H1.72223Z" fill="#F5F5F5"/>
</svg>
