<svg width="19" height="20" viewBox="0 0 19 20" fill="none" xmlns="http://www.w3.org/2000/svg">
<path d="M9.5 0.72998C8.25244 0.72998 7.0171 0.975705 5.86451 1.45313C4.71191 1.93054 3.66464 2.63031 2.78249 3.51247C1.00089 5.29406 0 7.71042 0 10.23C0 14.429 2.7265 17.9915 6.498 19.255C6.973 19.331 7.125 19.0365 7.125 18.78V17.1745C4.4935 17.7445 3.933 15.9015 3.933 15.9015C3.496 14.7995 2.8785 14.505 2.8785 14.505C2.014 13.916 2.945 13.935 2.945 13.935C3.895 14.0015 4.3985 14.9135 4.3985 14.9135C5.225 16.3575 6.6215 15.93 7.163 15.702C7.2485 15.0845 7.4955 14.6665 7.7615 14.429C5.6525 14.1915 3.439 13.3745 3.439 9.75498C3.439 8.70048 3.8 7.85498 4.4175 7.18048C4.3225 6.94298 3.99 5.95498 4.5125 4.67248C4.5125 4.67248 5.3105 4.41598 7.125 5.64148C7.8755 5.43248 8.6925 5.32798 9.5 5.32798C10.3075 5.32798 11.1245 5.43248 11.875 5.64148C13.6895 4.41598 14.4875 4.67248 14.4875 4.67248C15.01 5.95498 14.6775 6.94298 14.5825 7.18048C15.2 7.85498 15.561 8.70048 15.561 9.75498C15.561 13.384 13.338 14.182 11.2195 14.4195C11.5615 14.714 11.875 15.2935 11.875 16.177V18.78C11.875 19.0365 12.027 19.3405 12.5115 19.255C16.283 17.982 19 14.429 19 10.23C19 8.98242 18.7543 7.74708 18.2769 6.59449C17.7994 5.4419 17.0997 4.39462 16.2175 3.51247C15.3354 2.63031 14.2881 1.93054 13.1355 1.45313C11.9829 0.975705 10.7476 0.72998 9.5 0.72998Z" fill="#F5F5F5"/>
</svg>
