<svg width="41" height="40" viewBox="0 0 41 40" fill="none" xmlns="http://www.w3.org/2000/svg">
<path d="M36.4643 0H5.03571C2.66964 0 0.75 1.91964 0.75 4.28571V35.7143C0.75 38.0804 2.66964 40 5.03571 40H36.4643C38.8304 40 40.75 38.0804 40.75 35.7143V4.28571C40.75 1.91964 38.8304 0 36.4643 0ZM22.5179 31.1964C22.5179 35.0893 20.2321 36.8661 16.9018 36.8661C13.8929 36.8661 12.1518 35.3125 11.2589 33.4286L14.3214 31.5804C14.9107 32.625 15.4464 33.5089 16.7411 33.5089C17.9732 33.5089 18.7589 33.0268 18.7589 31.1429V18.3661H22.5179V31.1964ZM31.4107 36.8661C27.9196 36.8661 25.6607 35.2054 24.5625 33.0268L27.625 31.2589C28.4286 32.5714 29.4821 33.5446 31.3304 33.5446C32.8839 33.5446 33.8839 32.7679 33.8839 31.6875C33.8839 30.4018 32.8661 29.9464 31.1429 29.1875L30.2054 28.7857C27.4911 27.6339 25.6964 26.1786 25.6964 23.1161C25.6964 20.2946 27.8482 18.1518 31.1964 18.1518C33.5893 18.1518 35.3036 18.9821 36.5357 21.1607L33.6071 23.0357C32.9643 21.8839 32.2679 21.4286 31.1875 21.4286C30.0893 21.4286 29.3929 22.125 29.3929 23.0357C29.3929 24.1607 30.0893 24.6161 31.7054 25.3214L32.6429 25.7232C35.8393 27.0893 37.6339 28.4911 37.6339 31.6339C37.6339 35.0089 34.9732 36.8661 31.4107 36.8661Z" fill="#8D1D1D"/>
</svg>
