<svg width="103" height="31" viewBox="0 0 103 31" fill="none" xmlns="http://www.w3.org/2000/svg">
<path d="M0.72 30V1.76H5.12L7 7.4V30H0.72ZM20.2 30L3.56 8.68L5.12 1.76L21.76 23.08L20.2 30ZM20.2 30L18.52 24.36V1.76H24.8V30H20.2ZM39.2912 30.44C37.1846 30.44 35.3046 30.0133 33.6513 29.16C32.0246 28.28 30.7446 27.0667 29.8113 25.52C28.8779 23.9733 28.4113 22.2267 28.4113 20.28C28.4113 18.3333 28.8646 16.6 29.7713 15.08C30.7046 13.5333 31.9579 12.32 33.5313 11.44C35.1046 10.56 36.8779 10.12 38.8513 10.12C40.7713 10.12 42.4646 10.5333 43.9313 11.36C45.3979 12.1867 46.5446 13.3333 47.3713 14.8C48.2246 16.2667 48.6512 17.9467 48.6512 19.84C48.6512 20.1867 48.6246 20.56 48.5713 20.96C48.5446 21.3333 48.4779 21.7733 48.3713 22.28L31.6113 22.32V18.12L45.7713 18.08L43.1313 19.84C43.1046 18.72 42.9313 17.8 42.6113 17.08C42.2913 16.3333 41.8113 15.7733 41.1713 15.4C40.5579 15 39.7979 14.8 38.8913 14.8C37.9313 14.8 37.0913 15.0267 36.3713 15.48C35.6779 15.9067 35.1313 16.52 34.7313 17.32C34.3579 18.12 34.1713 19.0933 34.1713 20.24C34.1713 21.3867 34.3713 22.3733 34.7713 23.2C35.1979 24 35.7846 24.6267 36.5313 25.08C37.3046 25.5067 38.2113 25.72 39.2513 25.72C40.2113 25.72 41.0779 25.56 41.8513 25.24C42.6246 24.8933 43.3046 24.3867 43.8913 23.72L47.2513 27.08C46.2913 28.2 45.1313 29.04 43.7713 29.6C42.4113 30.16 40.9179 30.44 39.2912 30.44ZM61.2053 30.44C59.0986 30.44 57.2186 30.0133 55.5653 29.16C53.9386 28.28 52.6586 27.0667 51.7253 25.52C50.792 23.9733 50.3253 22.2267 50.3253 20.28C50.3253 18.3333 50.7786 16.6 51.6853 15.08C52.6186 13.5333 53.872 12.32 55.4453 11.44C57.0186 10.56 58.792 10.12 60.7653 10.12C62.6853 10.12 64.3786 10.5333 65.8453 11.36C67.312 12.1867 68.4586 13.3333 69.2853 14.8C70.1386 16.2667 70.5653 17.9467 70.5653 19.84C70.5653 20.1867 70.5386 20.56 70.4853 20.96C70.4586 21.3333 70.392 21.7733 70.2853 22.28L53.5253 22.32V18.12L67.6853 18.08L65.0453 19.84C65.0186 18.72 64.8453 17.8 64.5253 17.08C64.2053 16.3333 63.7253 15.7733 63.0853 15.4C62.472 15 61.712 14.8 60.8053 14.8C59.8453 14.8 59.0053 15.0267 58.2853 15.48C57.592 15.9067 57.0453 16.52 56.6453 17.32C56.272 18.12 56.0853 19.0933 56.0853 20.24C56.0853 21.3867 56.2853 22.3733 56.6853 23.2C57.112 24 57.6986 24.6267 58.4453 25.08C59.2186 25.5067 60.1253 25.72 61.1653 25.72C62.1253 25.72 62.992 25.56 63.7653 25.24C64.5386 24.8933 65.2186 24.3867 65.8053 23.72L69.1653 27.08C68.2053 28.2 67.0453 29.04 65.6853 29.6C64.3253 30.16 62.832 30.44 61.2053 30.44ZM85.9594 30L79.1594 19.92L85.9194 10.56H92.7594L84.5994 21.08L84.7994 18.56L93.1594 30H85.9594ZM73.5194 30V0.96H79.6394V30H73.5194Z" fill="#F5F5F5"/>
<path d="M98.5703 30.44C97.5303 30.44 96.6636 30.08 95.9703 29.36C95.277 28.64 94.9303 27.7733 94.9303 26.76C94.9303 25.6933 95.277 24.8133 95.9703 24.12C96.6636 23.4 97.5303 23.04 98.5703 23.04C99.637 23.04 100.504 23.4 101.17 24.12C101.864 24.8133 102.21 25.6933 102.21 26.76C102.21 27.7733 101.864 28.64 101.17 29.36C100.504 30.08 99.637 30.44 98.5703 30.44Z" fill="#8D1D1D"/>
</svg>
